# xmcd
#
# Track frame offsets: 
#        150
#        22699
#        43903
#
# Disc length: 882 seconds
#
# Revision: 2
# Processed by: cddbd v1.5.2PL0 Copyright (c) Steve Scherf et al.
# Submitted via: ExactAudioCopy v1.0b3
#
DISCID=19037003
DTITLE=Buono! - 夏ダカラ！
DYEAR=2007
DGENRE=JPop
TTITLE0=夏ダカラ！
TTITLE1=Ice Mermaid
TTITLE2=夏ダカラ！ （Instrumental）
EXTD=YEAR: 1999
EXTT0=
EXTT1=
EXTT2=
PLAYORDER=
